# xmcd
#
# Track frame offsets:
#	150
#	32041
#	55499
#	89350
#	142035
#	182673
#	218186
#	263670
#	301952
#
# Disc length: 4407 seconds
#
# Revision: 0
# Processed by: cddbd v1.5.1PL0 Copyright (c) Steve Scherf et al.
# Submitted via: dBpowerAMP V4.0
#
DISCID=7f113509
DTITLE=Dan Brown - DF04 - Digital Fortress
DYEAR=2004
DGENRE=Spoken
TTITLE0=0401 Digital Fortress
TTITLE1=0402 Digital Fortress
TTITLE2=0403 Digital Fortress
TTITLE3=0404 Digital Fortress
TTITLE4=0405 Digital Fortress
TTITLE5=0406 Digital Fortress
TTITLE6=0407 Digital Fortress
TTITLE7=0408 Digital Fortress
TTITLE8=0409 Digital Fortress
EXTD=
EXTT0=
EXTT1=
EXTT2=
EXTT3=
EXTT4=
EXTT5=
EXTT6=
EXTT7=
EXTT8=
PLAYORDER=
